# xmcd CD database file
#
# Track frame offsets:
#	150
#	15863
#	38334
#	51921
#	54143
#	72808
#	88647
#	106367
#
# Disc length: 1717 seconds
#
# Revision: 0
# Processed by: cddbd v1.5.2PL0 Copyright (c) Steve Scherf et al.
# Submitted via: CDex 1.51
#
DISCID=5106b308
DTITLE=Dark Age - Dark Age
DYEAR=1984
DGENRE=Power Metal
TTITLE0=Metal Axe
TTITLE1=Tales Of Medusa
TTITLE2=Rock Revelation
TTITLE3=The Execution
TTITLE4=Messenger To Acheron
TTITLE5=Warrior
TTITLE6=Viper
TTITLE7=Dark Age
EXTD=YEAR: 1984
EXTT0=
EXTT1=
EXTT2=
EXTT3=
EXTT4=
EXTT5=
EXTT6=
EXTT7=
PLAYORDER=
